<?xml version="1.0" encoding="UTF-8" standalone="no"?>
<!-- Created with Inkscape (http://www.inkscape.org/) -->

<svg
   width="128px"
   height="128px"
   viewBox="0 0 210 297"
   version="1.1"
   id="svg852"
   xmlns:xlink="http://www.w3.org/1999/xlink"
   xmlns="http://www.w3.org/2000/svg"
   xmlns:svg="http://www.w3.org/2000/svg">
  <defs
     id="defs849">
    <linearGradient
       id="Gradient_1"
       gradientUnits="userSpaceOnUse"
       x1="89.875"
       y1="51.575"
       x2="95.92500000000001"
       y2="68.425"
       spreadMethod="pad">
      <stop
         offset="0%"
         stop-color="#EB9516"
         id="stop9" />
      <stop
         offset="100%"
         stop-color="#FFAB1A"
         id="stop11" />
    </linearGradient>
    <linearGradient
       id="Gradient_2"
       gradientUnits="userSpaceOnUse"
       x1="46.125"
       y1="51.575"
       x2="40.075"
       y2="68.425"
       spreadMethod="pad">
      <stop
         offset="0%"
         stop-color="#EB9516"
         id="stop14" />
      <stop
         offset="100%"
         stop-color="#FFAB1A"
         id="stop16" />
    </linearGradient>
    <linearGradient
       xlink:href="#Gradient_1"
       id="linearGradient1029"
       gradientUnits="userSpaceOnUse"
       x1="89.875"
       y1="51.575"
       x2="95.92500000000001"
       y2="68.425"
       spreadMethod="pad" />
    <linearGradient
       xlink:href="#Gradient_2"
       id="linearGradient1041"
       gradientUnits="userSpaceOnUse"
       x1="46.125"
       y1="51.575"
       x2="40.075"
       y2="68.425"
       spreadMethod="pad" />
  </defs>
  <g
     id="layer1">
    <g
       id="g1223"
       transform="matrix(1.2143016,0,0,1.2143016,-22.163255,19.84061)">
      <g
         id="g435"
         transform="matrix(2.9745972,0,0,2.9745972,-97.551299,-51.700246)">
        <g
           id="use433">
          <path
             fill="url(#Gradient_1)"
             stroke="none"
             d="m 90.3,50.6 q -0.65,1.5 0,3.65 1.75,6.1 0,14.2 h 7.85 q -0.2,-8.5 -3.85,-18.05 -0.45,-1.5 -2.05,-1.1 -1.2,0.15 -1.95,1.3 z"
             id="path1025"
             style="fill:url(#linearGradient1029)" />
        </g>
      </g>
      <g
         id="g439"
         transform="matrix(2.9745972,0,0,2.9745972,-97.551299,-51.700246)">
        <g
           id="use437">
          <path
             fill="#ffab1a"
             stroke="none"
             d="m 100.8,73.2 q 0.2,-0.75 0.2,-1.4 0.05,-1.7 -0.85,-3.25 -1.35,-2.2 -3.9,-2.8 -2,-0.5 -3.85,0.15 -0.45,0.2 -0.85,0.45 -2.25,1.35 -2.9,3.85 -0.65,2.5 0.7,4.7 1.35,2.15 3.9,2.8 2.5,0.7 4.7,-0.7 2.2,-1.25 2.85,-3.8 z"
             id="path1021" />
        </g>
      </g>
      <g
         id="g443"
         transform="matrix(2.9745972,0,0,2.9745972,-97.551299,-51.700246)">
        <g
           id="use441">
          <path
             fill="#e99416"
             stroke="none"
             d="m 54,75.5 v 8.75 h 6.65 v -6 Q 60.55,78.15 60.4,78.1 57.6,75.45 54,75.5 Z"
             id="path1015" />
          <path
             fill="#ffab1a"
             stroke="none"
             d="M 60.65,69.4 Q 60.6,68.05 59.7,67.05 58.7,66.1 57.3,66.1 55.95,66.1 55,67 54,68 54.05,69.35 L 54,75.5 q 3.6,-0.05 6.4,2.6 0.15,0.05 0.25,0.15 z"
             id="path1017" />
        </g>
      </g>
      <g
         id="g447"
         transform="matrix(2.9745972,0,0,2.9745972,-97.551299,-51.700246)">
        <g
           id="use445">
          <path
             fill="#e99416"
             stroke="none"
             d="m 80.55,75.35 q -4.9,0.2 -6.65,6.75 v 2.3 q 0,0.45 0.1,0.85 h 6.45 q 0.05,-0.4 0.05,-0.8 z"
             id="path1009" />
          <path
             fill="#ffab1a"
             stroke="none"
             d="m 74.85,67.1 q -1,0.9 -0.95,2.3 v 12.7 q 1.75,-6.55 6.65,-6.75 L 80.5,69.4 q -0.05,-1.35 -0.9,-2.35 -1,-0.95 -2.4,-0.95 -1.4,0 -2.35,1 z"
             id="path1011" />
        </g>
      </g>
      <g
         id="g451"
         transform="matrix(2.9745972,0,0,2.9745972,-97.551299,-51.700246)">
        <g
           id="use449">
          <path
             fill="#e99416"
             stroke="none"
             d="m 51.65,21.95 q 1.9,-1.8 4.55,-1.9 L 47.65,20 q -2.75,0.05 -4.75,1.95 -2,2 -2,4.75 v 41.8 q 0,2.7 2,4.65 1.95,1.95 4.75,1.9 l 8.5,0.05 Q 53.5,75 51.65,73.15 49.65,71.2 49.7,68.5 V 26.65 q -0.05,-2.7 1.95,-4.7 z"
             id="path999" />
          <path
             fill="#ffab1a"
             stroke="none"
             d="m 94.05,26.7 q 0,-2.8 -1.9,-4.7 -2,-1.95 -4.65,-2 l -31.3,0.05 q -2.65,0.1 -4.55,1.9 -2,2 -1.95,4.7 V 68.5 q -0.05,2.7 1.95,4.65 1.85,1.85 4.5,1.95 h 31.3 q 2.7,-0.05 4.7,-1.9 1.95,-1.95 1.95,-4.75 L 94.05,26.7 M 90.5,30.25 90.45,48.7 Q 90.35,52 86.9,51.95 L 58.25,52 Q 54.8,52 54.7,48.65 V 30.3 27.15 q 0.05,-3.45 3.55,-3.4 L 86.9,23.7 q 3.6,0 3.55,3.5 z"
             id="path1001" />
          <path
             fill="#a3b74e"
             stroke="none"
             d="M 90.5,30.25 90.45,27.2 Q 90.5,23.7 86.9,23.7 l -28.65,0.05 q -3.5,-0.05 -3.55,3.4 v 3.15 q 0.15,-3.35 3.6,-3.35 h 28.65 q 3.4,-0.05 3.55,3.3 z"
             id="path1003" />
          <path
             fill="#acc254"
             stroke="none"
             d="M 90.45,48.7 90.5,30.25 Q 90.35,26.9 86.95,26.95 H 58.3 q -3.45,0 -3.6,3.35 V 48.65 Q 54.8,52 58.25,52 L 86.9,51.95 Q 90.35,52 90.45,48.7 Z"
             id="path1005" />
        </g>
      </g>
      <g
         id="g455"
         transform="matrix(2.9745972,0,0,2.9745972,-97.551299,-51.700246)">
        <g
           id="use453">
          <path
             fill="#374013"
             stroke="none"
             d="m 63.3,34.85 q -1.2,0.05 -2,0.8 -0.85,0.85 -0.85,2.05 0,1.15 0.85,1.95 0.8,0.85 2.05,0.8 1.15,0 1.95,-0.8 0.85,-0.8 0.85,-2 0,-1.15 -0.85,-2 -0.8,-0.8 -2,-0.8 m -3.75,-2.05 0.6,0.7 q 2,-1.45 5,-0.65 v -2 q -3.95,-1 -5.6,1.95 m 25.4,0.7 0.55,-0.65 q -1.65,-2.95 -5.55,-2 v 2 q 2.95,-0.9 5,0.65 m -0.6,6.15 q 0.85,-0.85 0.85,-2 0,-1.15 -0.85,-2 -0.85,-0.75 -2.05,-0.75 -1.15,-0.05 -1.9,0.8 -0.95,0.8 -0.95,1.95 0,1.2 0.9,2 0.8,0.8 2,0.8 1.2,0.05 2,-0.8 z"
             id="path1057" />
        </g>
      </g>
      <g
         id="g459"
         transform="matrix(2.9745972,0,0,2.9745972,-97.551299,-51.700246)">
        <path
           id="use457"
           stroke="#374013"
           stroke-width="2"
           stroke-linejoin="round"
           stroke-linecap="round"
           fill="none"
           d="m 76.9,42.7 q -0.3,0.35 -0.65,0.7 -1.3,1.3 -3.2,1.3 -1.9,0 -3.25,-1.3 -0.35,-0.35 -0.55,-0.7" />
      </g>
      <g
         id="g463"
         transform="matrix(2.9745972,0,0,2.9745972,-97.551299,-51.700246)">
        <g
           id="use461">
          <path
             fill="#ffab1a"
             stroke="none"
             d="m 89.9,86 v -0.05 l 0.05,-0.05 q -0.1,-3.2 -2.4,-5.4 -2.35,-2.4 -5.65,-2.4 -3.3,0 -5.65,2.35 -2.3,2.25 -2.35,5.4 v 0.05 q 0,0.05 0,0.1 z"
             id="path1053" />
        </g>
      </g>
      <g
         id="g467"
         transform="matrix(2.9745972,0,0,2.9745972,-97.551299,-51.700246)">
        <g
           id="use465">
          <path
             fill="#ffab1a"
             stroke="none"
             d="m 62,80.5 q -2.35,-2.4 -5.65,-2.4 -3.35,0 -5.7,2.4 -2.25,2.25 -2.4,5.35 v 0.05 q 0,0.05 0,0.1 H 64.3 V 85.9 Q 64.25,82.75 62,80.5 Z"
             id="path1049" />
        </g>
      </g>
      <g
         id="g471"
         transform="matrix(2.9745972,0,0,2.9745972,-97.551299,-51.700246)">
        <g
           id="use469">
          <path
             fill="#626262"
             stroke="none"
             d="m 65,56.3 q 0,-0.7 -0.7,-0.6 L 60.35,56 q -0.65,0.05 -0.65,0.7 l 0.35,3.85 -3.9,0.3 Q 55.4,60.9 55.4,61.6 l 0.35,3.95 q 0.1,0.6 0.8,0.6 l 3.95,-0.3 0.25,3.8 q 0.1,0.7 0.8,0.65 l 3.9,-0.3 q 0.65,-0.05 0.6,-0.65 l -0.35,-3.9 4.1,-0.35 q 0.55,-0.05 0.5,-0.7 l -0.35,-3.95 q 0,-0.7 -0.65,-0.65 L 65.35,60.15 65,56.3 m 19.2,4.2 q -0.05,-2 -1.4,-3.25 -1.55,-1.5 -3.65,-1.55 -2.1,0.05 -3.65,1.55 h -0.05 q -1.45,1.4 -1.4,3.5 0,2.05 1.45,3.6 1.5,1.45 3.65,1.45 0.6,0 1.15,-0.15 0.05,1.95 1.45,3.35 1.5,1.45 3.6,1.45 Q 87.4,70.4 89,69 q 1.45,-1.5 1.45,-3.55 0,-2.1 -1.45,-3.55 -1.55,-1.45 -3.7,-1.5 -0.55,0 -1.1,0.1 m -2.75,-2 q 0.9,0.95 0.95,2.25 -0.05,1.35 -1,2.2 -0.9,1 -2.25,0.95 -1.35,0.05 -2.3,-0.95 -0.95,-0.85 -0.9,-2.2 -0.05,-1.35 0.9,-2.25 0.9,-0.85 2.3,-0.85 1.35,0 2.3,0.85 m 6.2,4.65 q 0.95,0.95 0.95,2.25 0,1.35 -1,2.2 -0.85,0.95 -2.25,1 -1.3,-0.05 -2.25,-1 -0.9,-0.85 -0.9,-2.2 0,-1.25 0.9,-2.25 0.95,-0.9 2.3,-0.9 1.3,0 2.25,0.9 z"
             id="path1043" />
          <path
             fill="#f66723"
             stroke="none"
             d="m 88.6,65.4 q 0,-1.3 -0.95,-2.25 -0.95,-0.9 -2.25,-0.9 -1.35,0 -2.3,0.9 -0.9,1 -0.9,2.25 0,1.35 0.9,2.2 0.95,0.95 2.25,1 1.4,-0.05 2.25,-1 1,-0.85 1,-2.2 m -6.2,-4.65 q -0.05,-1.3 -0.95,-2.25 -0.95,-0.85 -2.3,-0.85 -1.4,0 -2.3,0.85 -0.95,0.9 -0.9,2.25 -0.05,1.35 0.9,2.2 0.95,1 2.3,0.95 1.35,0.05 2.25,-0.95 0.95,-0.85 1,-2.2 z"
             id="path1045" />
        </g>
      </g>
      <g
         id="g475"
         transform="matrix(2.9745972,0,0,2.9745972,-97.551299,-51.700246)">
        <g
           id="use473">
          <path
             fill="url(#Gradient_2)"
             stroke="none"
             d="m 45.7,54.25 q 0.65,-2.15 0,-3.65 -0.75,-1.15 -1.95,-1.3 -1.6,-0.4 -2.05,1.1 -3.65,9.55 -3.85,18.05 h 7.85 q -1.75,-8.1 0,-14.2 z"
             id="path1037"
             style="fill:url(#linearGradient1041)" />
        </g>
      </g>
      <g
         id="g479"
         transform="matrix(2.9745972,0,0,2.9745972,-97.551299,-51.700246)">
        <g
           id="use477">
          <path
             fill="#ffab1a"
             stroke="none"
             d="m 35.2,73.2 q 0.65,2.55 2.85,3.8 2.2,1.4 4.7,0.7 2.55,-0.65 3.9,-2.8 1.35,-2.2 0.7,-4.7 -0.65,-2.5 -2.9,-3.85 -0.4,-0.25 -0.85,-0.45 -1.85,-0.65 -3.85,-0.15 -2.55,0.6 -3.9,2.8 -0.9,1.55 -0.85,3.25 0,0.65 0.2,1.4 z"
             id="path1033" />
        </g>
      </g>
    </g>
  </g>
</svg>
