<?xml version="1.0" standalone="no"?>
<!DOCTYPE svg PUBLIC "-//W3C//DTD SVG 20010904//EN"
 "http://www.w3.org/TR/2001/REC-SVG-20010904/DTD/svg10.dtd">
<svg version="1.0" xmlns="http://www.w3.org/2000/svg"
 width="700.000000pt" height="700.000000pt" viewBox="0 0 700.000000 700.000000"
 preserveAspectRatio="xMidYMid meet">
<metadata>
Created by potrace 1.14, written by Peter Selinger 2001-2017
</metadata>
<g transform="translate(0.000000,700.000000) scale(0.100000,-0.100000)"
fill="#000000" stroke="none">
<path d="M0 3500 l0 -3500 3500 0 3500 0 0 3500 0 3500 -3500 0 -3500 0 0
-3500z m2314 2886 c44 -43 76 -88 102 -142 37 -73 39 -83 39 -169 0 -82 -3
-97 -32 -156 -86 -175 -281 -274 -471 -240 -84 15 -178 58 -251 114 -62 48
-53 53 -124 -68 -85 -145 -135 -297 -144 -440 -15 -246 98 -409 332 -482 88
-26 315 -24 450 5 106 23 235 62 348 105 l68 26 20 -47 c103 -246 259 -420
464 -522 144 -71 203 -85 365 -84 152 0 217 14 338 70 192 88 363 266 463 479
22 46 39 88 39 95 0 7 7 10 18 5 255 -98 440 -144 607 -152 201 -10 357 37
458 139 183 182 163 501 -51 851 -19 31 -38 57 -41 57 -4 0 -31 -19 -61 -41
-119 -91 -271 -134 -391 -111 -145 27 -263 115 -322 240 -29 61 -32 76 -32
162 0 87 3 101 32 160 33 68 103 155 152 189 l29 21 173 -44 c815 -205 1440
-579 1723 -1030 103 -164 141 -298 134 -473 -5 -125 -27 -200 -90 -308 -51
-88 -195 -231 -303 -303 -228 -152 -566 -273 -965 -346 -144 -26 -363 -56
-411 -56 -16 0 -29 -3 -29 -7 0 -4 20 -66 44 -137 143 -421 230 -885 252
-1331 l7 -140 176 -180 c199 -203 417 -453 556 -638 l28 -38 -326 -327 -327
-327 270 -174 c149 -96 270 -175 270 -177 0 -2 -347 -4 -771 -4 l-771 0 80 88
c178 194 312 412 347 562 98 424 -262 694 -1015 761 -203 18 -666 7 -845 -21
-493 -74 -764 -229 -830 -475 -58 -212 77 -510 375 -827 l82 -88 -769 0 -768
0 263 175 c144 96 262 178 262 183 0 4 -145 152 -322 329 l-321 322 57 76
c159 212 501 594 665 743 l87 80 12 178 c28 432 113 863 247 1253 25 73 44
134 43 135 -2 2 -70 10 -153 20 -517 60 -961 197 -1247 385 -96 62 -228 187
-280 265 -87 127 -123 241 -122 386 1 120 22 206 84 335 58 123 123 216 231
329 329 347 877 632 1542 801 95 24 175 44 180 44 4 1 36 -28 71 -63z m1344
-299 c229 -80 401 -296 457 -576 14 -65 16 -115 12 -225 -6 -167 -20 -223 -89
-365 -43 -91 -62 -116 -141 -196 -74 -74 -107 -99 -167 -127 -97 -46 -157 -60
-255 -59 -271 1 -502 191 -604 496 -151 451 73 957 470 1065 97 27 218 22 317
-13z"/>
</g>
</svg>
