<?xml version="1.0" standalone="no"?>
<!DOCTYPE svg PUBLIC "-//W3C//DTD SVG 20010904//EN"
 "http://www.w3.org/TR/2001/REC-SVG-20010904/DTD/svg10.dtd">
<svg version="1.0" xmlns="http://www.w3.org/2000/svg"
 width="512.000000pt" height="512.000000pt" viewBox="0 0 512.000000 512.000000"
 preserveAspectRatio="xMidYMid meet">
<metadata>
Created by potrace 1.14, written by Peter Selinger 2001-2017
</metadata>
<g transform="translate(0.000000,512.000000) scale(0.100000,-0.100000)"
fill="#000000" stroke="none">
<path d="M2360 5094 c-376 -43 -629 -113 -915 -253 -265 -130 -476 -281 -681
-485 -396 -397 -639 -889 -725 -1471 -18 -120 -18 -530 0 -650 86 -582 329
-1074 725 -1471 397 -396 889 -639 1471 -725 120 -18 530 -18 650 0 582 86
1074 329 1471 725 396 397 639 889 725 1471 18 120 18 530 0 650 -86 582 -329
1074 -725 1471 -388 388 -871 630 -1433 719 -93 15 -484 28 -563 19z m369
-282 c65 -65 139 -94 235 -94 59 0 79 5 137 35 l67 34 82 -24 c130 -37 123
-30 118 -137 -4 -64 -12 -106 -27 -141 -31 -70 -103 -141 -169 -165 -51 -19
-79 -20 -760 -20 l-708 0 -52 26 c-95 47 -172 159 -172 249 0 31 4 34 91 74
218 101 421 161 664 195 157 22 186 24 322 21 l122 -3 50 -50z m241 22 c115
-20 122 -24 80 -39 -61 -23 -149 -18 -207 10 -28 15 -57 33 -65 42 -12 14 -7
15 47 9 33 -4 98 -14 145 -22z m585 -190 c25 -14 45 -28 45 -30 0 -4 -116 -64
-125 -64 -3 0 -5 30 -5 66 0 74 1 75 85 28z m221 -120 c463 -290 807 -725 977
-1237 20 -59 47 -158 61 -220 25 -113 50 -276 44 -283 -2 -2 -43 17 -91 42
-206 107 -333 113 -338 17 -6 -101 21 -173 84 -235 44 -42 136 -90 210 -109
l48 -12 -72 -24 c-68 -23 -125 -54 -141 -78 -4 -5 -8 -24 -8 -42 0 -24 9 -39
40 -66 61 -52 135 -68 223 -48 l38 9 -7 -36 c-123 -727 -553 -1331 -1196
-1681 l-77 -42 -49 25 -49 25 -5 78 c-4 58 -12 93 -33 138 -33 68 -119 160
-180 190 -22 11 -42 21 -44 22 -2 1 2 31 9 66 25 135 -47 237 -168 237 -21 0
-43 -5 -50 -12 -17 -17 -15 -77 3 -112 8 -15 15 -30 15 -32 0 -1 -26 9 -57 24
-49 23 -72 27 -143 27 -72 0 -92 -4 -130 -25 -40 -23 -45 -29 -45 -60 0 -32 5
-38 50 -62 l50 -27 -535 -3 -535 -3 -68 -33 c-121 -60 -203 -166 -230 -300
l-13 -62 -85 58 c-137 93 -207 150 -320 260 -333 321 -553 711 -654 1157 -31
137 -31 141 3 159 l27 15 -32 1 -31 0 -7 68 c-4 37 -7 81 -8 97 l-2 30 217 5
217 5 -217 114 c-119 63 -219 116 -221 117 -8 7 31 297 54 399 132 587 484
1092 993 1430 40 26 74 46 75 44 2 -2 9 -26 16 -54 25 -101 118 -208 226 -261
l60 -29 745 0 745 0 68 32 c79 38 161 115 197 187 23 45 34 53 135 107 61 32
113 59 116 59 3 0 46 -25 95 -56z m-3377 -2020 c2 -2 -30 -4 -72 -4 l-77 0 0
40 0 40 73 -36 c39 -20 74 -38 76 -40z m2782 -1650 c66 -31 124 -87 155 -151
25 -50 27 -65 28 -181 l1 -127 -103 -34 -103 -33 -62 28 c-125 56 -266 31
-372 -67 l-46 -42 -172 6 c-346 13 -635 80 -914 212 l-113 54 0 54 c0 138 101
263 237 296 21 5 345 9 728 8 682 -2 691 -2 736 -23z m-142 -544 c10 -5 -3
-11 -40 -19 -79 -16 -201 -32 -206 -27 -9 8 49 40 95 53 46 12 123 9 151 -7z"/>
<path d="M2552 4688 c-55 -55 73 -167 191 -168 63 0 87 13 87 49 0 66 -101
131 -205 131 -34 0 -66 -5 -73 -12z"/>
<path d="M3013 3670 c-19 -8 -23 -17 -23 -50 0 -23 7 -55 16 -72 15 -29 15
-31 -2 -23 -92 38 -123 46 -184 46 -103 1 -180 -38 -180 -91 0 -21 9 -32 48
-53 l47 -27 -386 0 -387 0 -30 48 c-17 26 -38 64 -48 85 -10 20 -22 37 -26 37
-23 0 -68 -67 -97 -143 -6 -15 -14 -27 -19 -27 -17 0 -62 57 -87 113 -15 31
-30 57 -34 57 -14 0 -59 -55 -81 -100 -14 -26 -25 -71 -28 -110 -4 -57 -9 -70
-40 -104 -19 -21 -48 -68 -66 -105 l-31 -66 -5 -212 -5 -212 -95 60 c-256 162
-444 225 -500 169 -23 -23 -28 -114 -8 -171 32 -95 122 -170 251 -210 l75 -23
-68 -22 c-63 -20 -125 -54 -142 -79 -4 -5 -8 -24 -8 -42 0 -59 103 -123 198
-123 62 0 156 39 230 94 l72 55 0 -192 c0 -260 17 -323 114 -425 54 -57 118
-97 187 -117 50 -14 138 -15 775 -13 l719 3 65 31 c78 37 119 71 170 138 35
48 55 60 325 201 l287 150 -268 5 -269 5 0 155 0 155 445 5 445 5 -200 106
c-110 59 -311 164 -446 234 l-245 127 -2 64 c-4 123 -76 251 -182 322 -33 22
-64 42 -70 44 -8 2 -8 22 0 68 10 50 10 75 0 109 -24 91 -130 152 -207 121z
m-1289 -416 c34 -33 131 -116 216 -184 304 -243 426 -383 491 -565 22 -62 24
-32 4 54 -43 182 -173 349 -470 603 -55 47 -109 95 -119 107 l-19 21 645 0
c565 0 650 -2 692 -16 64 -22 147 -100 177 -166 l24 -53 0 -545 0 -545 -26
-55 c-34 -72 -100 -135 -166 -160 -52 -19 -78 -20 -761 -20 l-707 0 -50 24
c-53 24 -121 91 -152 147 -17 31 -18 70 -21 509 l-3 475 30 -35 c28 -32 30
-42 31 -110 1 -161 59 -273 172 -331 78 -40 276 -67 373 -51 l50 8 -82 7
c-263 21 -409 123 -430 298 l-6 52 64 -36 c35 -20 105 -49 154 -66 122 -40
327 -68 229 -31 -220 84 -428 211 -494 302 -32 44 -41 111 -19 146 10 16 22 7
108 -78 97 -96 178 -149 283 -185 l43 -15 -60 52 c-250 215 -370 430 -329 586
6 21 10 18 37 -30 17 -29 58 -80 91 -114z m-198 -122 c-18 -16 -18 -16 -6 6 6
13 14 21 18 18 3 -4 -2 -14 -12 -24z m2429 -524 l130 -68 -307 0 -308 0 0 161
0 161 178 -93 c97 -51 236 -123 307 -161z m-340 -598 c-82 -43 -150 -78 -150
-77 0 1 1 37 3 80 l4 77 146 0 147 0 -150 -80z"/>
<path d="M2853 2782 c-76 -27 -129 -68 -167 -129 -109 -174 -47 -385 139 -474
111 -54 247 -35 343 46 78 66 129 186 119 277 -13 107 -84 211 -179 263 -69
38 -177 45 -255 17z m223 -70 c135 -69 186 -221 121 -355 -31 -62 -92 -117
-154 -138 -21 -6 -65 -9 -104 -7 -113 8 -200 76 -235 182 -43 128 34 284 164
333 52 19 156 11 208 -15z"/>
<path d="M2981 2536 c-84 -46 -57 -175 37 -176 59 0 101 34 102 83 0 27 -1 27
-24 12 -19 -13 -29 -14 -45 -5 -25 13 -28 52 -6 70 8 7 15 16 15 21 0 13 -52
10 -79 -5z"/>
<path d="M2552 2118 c-55 -55 73 -167 191 -168 65 0 87 13 87 51 0 37 -44 82
-105 110 -46 21 -154 26 -173 7z"/>
</g>
</svg>
