<?xml version="1.0" encoding="UTF-8" standalone="no"?>
<!DOCTYPE svg PUBLIC "-//W3C//DTD SVG 1.1//EN" "http://www.w3.org/Graphics/SVG/1.1/DTD/svg11.dtd">
<svg width="100%" height="100%" viewBox="0 0 256 256" version="1.1" xmlns="http://www.w3.org/2000/svg" xmlns:xlink="http://www.w3.org/1999/xlink" xml:space="preserve" xmlns:serif="http://www.serif.com/" style="fill-rule:evenodd;clip-rule:evenodd;stroke-linecap:round;stroke-linejoin:round;stroke-miterlimit:1.5;">
    <g id="face-with-border-inline" serif:id="face with border inline">
        <g transform="matrix(-0.973627,0,0,0.973627,252.624,3.3757)">
            <path d="M256,43.339C256,19.42 236.58,0 212.661,0L43.339,0C19.42,0 0,19.42 0,43.339L0,212.661C0,236.58 19.42,256 43.339,256L212.661,256C236.58,256 256,236.58 256,212.661L256,43.339Z" style="fill:rgb(255,126,121);stroke:black;stroke-width:4.28px;"/>
        </g>
        <path d="M45.572,3.376L136.08,3.376C140.56,31.508 154.036,118.592 152.548,139.093C151.855,148.636 123.974,141.838 123.974,141.838L122.888,252.624L45.572,252.624C22.283,252.624 3.376,233.717 3.376,210.428L3.376,45.572C3.376,22.283 22.283,3.376 45.572,3.376Z" style="fill:rgb(255,212,121);stroke:black;stroke-width:4.17px;"/>
    </g>
    <g id="face">
        <g id="smile" transform="matrix(1.1492,-0.191776,0.173682,1.04077,-43.635,10.8344)">
            <path d="M76.54,155.519C71.068,160.378 70.009,198.262 77.571,211.73C85.132,225.197 105.667,241.004 121.907,236.325C161.781,224.836 166.405,183.822 174.323,172.624C175.482,170.987 171.19,168.199 169.418,169.139C164.419,171.792 154.163,186.303 144.328,188.542C134.492,190.781 120.727,187.6 110.406,182.572C99.108,177.068 82.013,150.659 76.54,155.519Z" style="stroke:black;stroke-width:3.75px;"/>
            <path d="M76.54,155.519C74.692,156.818 73.747,160.312 71.419,177.039C69.288,192.345 131.935,203.34 147.111,204.332C151.307,204.607 156.518,181.684 154.746,182.625C149.747,185.277 154.163,186.303 144.328,188.542C134.492,190.781 120.727,187.6 110.406,182.572C99.108,177.068 82.528,151.311 76.54,155.519Z" style="fill:white;stroke:white;stroke-width:3.75px;"/>
            <path d="M108.792,218.268C101.403,214.169 77.118,210.914 77.571,211.73C88.95,232.214 118.892,239.897 121.907,236.325C129.451,227.385 115.297,221.877 108.792,218.268Z" style="fill:rgb(255,126,121);"/>
            <path d="M76.54,155.519C71.068,160.378 68.886,193.004 77.571,211.73C84.112,225.833 105.667,241.004 121.907,236.325C161.781,224.836 166.405,183.822 174.323,172.624C175.482,170.987 171.19,168.199 169.418,169.139C164.419,171.792 154.163,186.303 144.328,188.542C134.492,190.781 120.727,187.6 110.406,182.572C99.108,177.068 82.013,150.659 76.54,155.519Z" style="fill:none;stroke:black;stroke-width:3.75px;"/>
        </g>
        <g id="open-eye" serif:id="open eye" transform="matrix(1,0,0,1,1,0)">
            <g transform="matrix(0.894867,0.089077,-0.0978693,0.983194,20.2503,1.00387)">
                <ellipse cx="83.154" cy="88.643" rx="44.846" ry="51.245" style="fill:white;stroke:black;stroke-width:4.41px;"/>
            </g>
            <circle cx="101.25" cy="105.821" r="10.256" style="stroke:black;stroke-width:4.17px;"/>
            <g transform="matrix(0.5,0,0,0.5,48.5376,47.7823)">
                <circle cx="101.25" cy="105.821" r="10.256" style="fill:white;"/>
            </g>
        </g>
        <g id="wink">
            <g transform="matrix(1,0,0,1,-74.841,8.59728)">
                <path d="M292.984,88.7L244.22,88.7" style="fill:none;stroke:black;stroke-width:4.17px;"/>
            </g>
            <g transform="matrix(1,0,0,1,1.4964,-0.938381)">
                <path d="M167.882,91.776C167.882,91.776 200.775,97.213 216.647,74.532" style="fill:none;stroke:black;stroke-width:4.17px;"/>
            </g>
            <g transform="matrix(1,0,0,-1,1.4964,195.532)">
                <path d="M167.882,91.776C167.882,91.776 199.021,93.925 216.647,74.532" style="fill:none;stroke:black;stroke-width:4.17px;"/>
            </g>
        </g>
    </g>
</svg>
