<?xml version="1.0" standalone="no"?>
<!DOCTYPE svg PUBLIC "-//W3C//DTD SVG 20010904//EN"
 "http://www.w3.org/TR/2001/REC-SVG-20010904/DTD/svg10.dtd">
<svg version="1.0" xmlns="http://www.w3.org/2000/svg"
 width="700.000000pt" height="700.000000pt" viewBox="0 0 700.000000 700.000000"
 preserveAspectRatio="xMidYMid meet">
<metadata>
Created by potrace 1.14, written by Peter Selinger 2001-2017
</metadata>
<g transform="translate(0.000000,700.000000) scale(0.100000,-0.100000)"
fill="#000000" stroke="none">
<path d="M4618 6154 c-2 -1 -43 -5 -93 -9 -49 -3 -110 -8 -135 -10 -25 -2 -83
-7 -130 -10 -47 -4 -101 -8 -120 -10 -19 -2 -78 -6 -130 -10 -52 -3 -113 -8
-135 -10 -22 -2 -78 -6 -125 -9 -47 -4 -105 -9 -130 -11 -25 -3 -81 -7 -125
-10 -87 -6 -168 -12 -255 -19 -30 -3 -91 -8 -135 -11 -141 -10 -331 -25 -395
-31 -45 -4 -137 -10 -265 -19 -38 -3 -95 -7 -125 -10 -30 -2 -89 -7 -130 -10
-41 -3 -95 -8 -120 -10 -25 -2 -79 -6 -120 -9 -190 -15 -219 -17 -273 -22
-186 -16 -331 -118 -420 -293 l-42 -84 0 -131 c0 -72 4 -174 8 -226 12 -141
15 -176 21 -270 4 -47 8 -105 11 -130 4 -41 8 -92 20 -260 4 -50 8 -105 21
-260 2 -30 7 -89 9 -130 3 -41 8 -100 10 -130 3 -30 7 -86 10 -125 5 -79 13
-184 21 -265 2 -30 6 -82 8 -115 3 -33 7 -101 11 -151 l7 -91 -61 -7 c-149
-17 -292 -87 -407 -201 -86 -84 -126 -137 -187 -247 -74 -133 -168 -413 -192
-573 -3 -22 -7 -47 -10 -55 -13 -45 -17 -91 -22 -254 -5 -145 -3 -180 8 -187
9 -5 9 -9 2 -9 -12 0 -10 -32 8 -150 12 -74 64 -190 109 -237 63 -69 168 -129
260 -150 66 -14 160 -5 258 26 133 41 262 185 296 329 12 51 14 162 3 202 -26
101 -59 164 -121 230 -38 42 -135 110 -156 110 -5 0 -10 2 -10 4 0 2 -5 27
-10 56 -61 322 -5 579 159 738 25 24 58 50 74 58 27 14 27 14 28 -18 0 -18 2
-53 4 -78 2 -25 6 -79 9 -120 3 -41 8 -106 11 -145 3 -38 7 -95 10 -125 16
-224 21 -278 30 -319 45 -223 265 -402 495 -405 29 0 238 15 260 19 8 1 60 6
115 9 55 4 108 10 118 12 16 5 17 -8 17 -179 l0 -184 -38 -11 c-89 -27 -228
-142 -296 -247 -53 -82 -96 -211 -96 -291 l0 -22 605 0 604 0 -5 46 c-18 178
-85 297 -242 434 l-31 27 0 230 c1 206 3 231 17 235 10 3 58 8 107 11 50 3
110 8 135 10 25 3 81 7 125 10 44 3 100 8 125 10 25 2 83 6 130 10 47 3 101 8
120 10 19 3 81 7 138 10 l102 6 1 -498 c1 -274 0 -510 -1 -525 l-1 -26 603 1
603 2 -3 55 c-10 231 -242 488 -476 528 -23 4 -83 7 -134 7 l-92 0 0 248 c0
228 1 247 18 248 9 1 26 3 37 4 11 1 63 5 115 9 52 4 115 9 140 11 25 3 83 7
130 10 47 3 99 8 115 11 207 34 372 179 420 369 15 62 20 184 10 258 -2 15 -6
67 -10 115 -3 48 -8 110 -10 137 -12 147 -16 196 -20 255 -11 141 -16 207 -20
245 -2 22 -7 85 -10 140 -4 55 -8 104 -8 110 -1 5 9 11 23 13 187 22 405 148
562 323 234 262 455 704 514 1029 3 14 8 34 11 45 7 24 13 88 20 209 4 77 2
99 -22 172 -15 46 -33 89 -41 95 -8 6 -14 17 -14 23 0 7 -28 42 -62 78 -105
109 -240 162 -398 156 -238 -9 -426 -166 -487 -408 -2 -8 -5 -48 -7 -88 -7
-156 52 -289 175 -400 34 -30 37 -36 34 -80 -13 -217 -64 -406 -147 -546 -43
-72 -159 -196 -184 -196 -9 0 -14 12 -15 38 -1 20 -2 51 -4 67 -10 123 -17
209 -20 260 -6 79 -15 189 -20 245 -3 25 -7 79 -10 120 -3 41 -7 100 -10 130
-2 30 -7 93 -10 140 -3 47 -7 105 -10 130 -4 44 -10 124 -20 250 -6 75 -12
155 -21 255 -13 156 -65 270 -168 366 -47 44 -133 92 -196 109 -38 11 -224 22
-232 14z"/>
</g>
</svg>
